<?xml version="1.0" encoding="UTF-8"?>
<svg id="Capa_2" data-name="Capa 2" xmlns="http://www.w3.org/2000/svg" viewBox="0 0 79.02 79">
  <defs>
    <style>
      .cls-1 {
        stroke-linejoin: round;
      }

      .cls-1, .cls-2 {
        fill: none;
        stroke: #e5df8d;
        stroke-width: 2px;
      }

      .cls-2 {
        stroke-linecap: round;
        stroke-miterlimit: 10;
      }

      .cls-3 {
        fill: #3b455e;
      }
    </style>
  </defs>
  <g id="Capa_1-2" data-name="Capa 1">
    <g>
      <path class="cls-1" d="M21.15,79V21.14h57.87"/>
      <path class="cls-3" d="M21.17,41.3h-.04c0-11.12-9.01-20.13-20.13-20.13v-.04c11.12,0,20.13-9.01,20.13-20.13h.04c0,11.12,9.01,20.13,20.13,20.13v.04c-11.12,0-20.13,9.01-20.13,20.13Z"/>
      <path class="cls-2" d="M21.17,41.3h-.04c0-11.12-9.01-20.13-20.13-20.13v-.04c11.12,0,20.13-9.01,20.13-20.13h.04c0,11.12,9.01,20.13,20.13,20.13v.04c-11.12,0-20.13,9.01-20.13,20.13Z"/>
    </g>
  </g>
</svg>