<?xml version="1.0" encoding="UTF-8"?>
<svg id="Capa_2" data-name="Capa 2" xmlns="http://www.w3.org/2000/svg" viewBox="0 0 91.81 148.03">
  <defs>
    <style>
      .cls-1 {
        fill: #3b455e;
        isolation: isolate;
        opacity: .5;
      }

      .cls-2 {
        stroke-linecap: round;
      }

      .cls-2, .cls-3 {
        stroke-width: 2px;
      }

      .cls-2, .cls-3, .cls-4 {
        fill: none;
        stroke: #f3f0ae;
        stroke-linejoin: round;
      }
    </style>
  </defs>
  <g id="Capa_1-2" data-name="Capa 1">
    <g>
      <path class="cls-1" d="M91.81,10.03v128l-9.37-.02c-1.99-18.5-10.16-35.64-23.5-49-6.14-6.15-13.09-11.2-20.6-15.06,23.95-12.3,41.09-36.04,44.17-63.94l9.3.02Z"/>
      <path class="cls-3" d="M91.81,147.03l-17.89-.03c.02-40.3-32.62-73-72.92-73.04,40.3,0,72.99-32.65,73.01-72.96l17.8.03"/>
      <path class="cls-4" d="M91.81,138.03l-9.37-.02c-1.99-18.5-10.16-35.64-23.5-49-6.14-6.15-13.09-11.2-20.6-15.06,23.95-12.3,41.09-36.04,44.17-63.94l9.3.02"/>
      <path class="cls-2" d="M65.56,132.38h-24.89c0-16.48-13.37-29.85-29.85-29.85v-18.95"/>
      <path class="cls-2" d="M10.82,65.03v-18.95c16.48,0,29.85-13.37,29.85-29.85h24.89"/>
      <path class="cls-2" d="M21.88,55.62c13.68-3.85,24.48-14.66,28.34-28.34h12.13"/>
      <path class="cls-2" d="M62.33,121.31h-12.11c-3.85-13.68-14.66-24.48-28.34-28.34"/>
    </g>
  </g>
</svg>