<?xml version="1.0" encoding="UTF-8"?>
<svg id="Capa_2" data-name="Capa 2" xmlns="http://www.w3.org/2000/svg" viewBox="0 0 500.01 45.02">
  <defs>
    <style>
      .cls-1 {
        fill: #191d37;
        stroke-linejoin: round;
      }

      .cls-1, .cls-2 {
        stroke: #e5df8d;
        stroke-linecap: round;
        stroke-width: 2px;
      }

      .cls-2 {
        fill: none;
        stroke-miterlimit: 10;
      }
    </style>
  </defs>
  <g id="Capa_1-2" data-name="Capa 1">
    <g>
      <path class="cls-2" d="M498.71,1c-3.54,13.09-15.57,22.72-29.87,22.72H31.19C16.89,23.72,4.84,14.09,1.31,1h497.4Z"/>
      <path class="cls-2" d="M81.45,1h337.12c-16.55,0-30.93,9.2-38.23,22.72-3.27,6.05-5.12,12.96-5.12,20.3H124.81c0-7.34-1.85-14.25-5.12-20.3C112.38,10.2,98,1,81.45,1Z"/>
      <path class="cls-1" d="M232.79,23.48c8.9-1.32,15.88-8.26,17.22-17.09,1.34,8.83,8.32,15.76,17.22,17.09-8.9,1.32-15.88,8.26-17.22,17.09-1.34-8.83-8.32-15.76-17.22-17.09Z"/>
    </g>
  </g>
</svg>