<?xml version="1.0" encoding="UTF-8"?>
<svg id="Capa_2" xmlns="http://www.w3.org/2000/svg" version="1.1" viewBox="0 0 91.8 148">
  <!-- Generator: Adobe Illustrator 29.6.0, SVG Export Plug-In . SVG Version: 2.1.1 Build 207)  -->
  <defs>
    <style>
      .st0, .st1, .st2 {
        fill: none;
        stroke: #e5df8d;
        stroke-linejoin: round;
      }

      .st0, .st2 {
        stroke-width: 2px;
      }

      .st3 {
        fill: #3b455e;
        isolation: isolate;
      }

      .st2 {
        stroke-linecap: round;
      }
    </style>
  </defs>
  <g id="Capa_1-2">
    <g>
      <path class="st3" d="M91.8,10v128h-9.4c-2-18.5-10.2-35.7-23.5-49-6.1-6.2-13.1-11.2-20.6-15.1,24-12.3,41.1-36,44.2-63.9,0,0,9.3,0,9.3,0Z"/>
      <path class="st0" d="M91.8,147h-17.9c0-40.3-32.6-73-72.9-73.1,40.3,0,73-32.7,73-73h17.8"/>
      <path class="st1" d="M91.8,138h-9.4c-2-18.5-10.2-35.7-23.5-49-6.1-6.2-13.1-11.2-20.6-15.1,24-12.3,41.1-36,44.2-63.9h9.3"/>
      <path class="st2" d="M65.6,132.4h-24.9c0-16.5-13.4-29.8-29.9-29.8v-19"/>
      <path class="st2" d="M10.8,65v-19c16.5,0,29.8-13.4,29.8-29.9h24.9"/>
      <path class="st2" d="M21.9,55.6c13.7-3.8,24.5-14.7,28.3-28.3h12.1"/>
      <path class="st2" d="M62.3,121.3h-12.1c-3.8-13.7-14.7-24.5-28.3-28.3"/>
    </g>
  </g>
</svg>