<?xml version="1.0" encoding="UTF-8"?>
<svg id="Capa_2" data-name="Capa 2" xmlns="http://www.w3.org/2000/svg" viewBox="0 0 500.01 107.01">
  <defs>
    <style>
      .cls-1 {
        fill: #191d37;
        stroke-linejoin: round;
      }

      .cls-1, .cls-2 {
        stroke: #607594;
        stroke-linecap: round;
        stroke-width: 2px;
      }

      .cls-2 {
        fill: none;
        stroke-miterlimit: 10;
      }
    </style>
  </defs>
  <g id="Capa_1-2" data-name="Capa 1">
    <g>
      <path class="cls-2" d="M499.01,105.18v.83H1v-.83c0-17.04,13.82-30.85,30.86-30.85h436.31c17.04,0,30.85,13.8,30.85,30.85Z"/>
      <path class="cls-2" d="M418.06,74.54v31.47H81.99v-31.47c1.45,0,2.89-.07,4.3-.21,21.88-2.16,38.96-20.61,38.96-43.04h249.54c0,22.38,17.23,40.93,39.08,43.04,1.37.14,2.77.21,4.18.21Z"/>
      <path class="cls-1" d="M267.18,74.55c-8.87,1.33-15.84,8.29-17.17,17.16-1.33-8.87-8.29-15.83-17.17-17.16,8.87-1.33,15.83-8.29,17.17-17.16,1.33,8.87,8.29,15.83,17.17,17.16Z"/>
      <path class="cls-2" d="M499.01,105.18v.83H1v-.83c0-17.04,13.82-30.85,30.86-30.85h436.31c17.04,0,30.85,13.8,30.85,30.85Z"/>
      <path class="cls-2" d="M418.06,74.54v31.47H81.99v-31.47c1.45,0,2.89-.07,4.3-.21,21.88-2.17,38.96-20.61,38.96-43.04h249.54c0,22.38,17.23,40.93,39.08,43.04,1.37.14,2.77.21,4.18.21Z"/>
      <path class="cls-1" d="M267.18,74.55c-8.87,1.33-15.84,8.29-17.17,17.16-1.33-8.87-8.29-15.83-17.17-17.16,8.87-1.33,15.83-8.29,17.17-17.16,1.33,8.87,8.29,15.83,17.17,17.16Z"/>
      <path class="cls-1" d="M280.31,31.29l-10.37,2.06c-9.03,1.79-16.08,8.84-17.87,17.87l-2.06,10.37-2.06-10.37c-1.79-9.03-8.84-16.08-17.87-17.87l-10.37-2.06,10.37-2.06c9.03-1.79,16.08-8.84,17.87-17.87l2.06-10.37,2.06,10.37c1.79,9.03,8.84,16.08,17.87,17.87l10.37,2.06Z"/>
    </g>
  </g>
</svg>